<svg xmlns="http://www.w3.org/2000/svg" width="42" height="32" viewBox="0 0 42 32" fill="none">
  <path d="M3.271 0H36.729C39.206 0 41 1.794 41 4.271V27.729C41 30.206 39.206 32 36.729 32H5.271C2.794 32 1 30.206 1 27.729V4.271C1 1.794 2.794 0 5.271 0H3.271ZM5.271 2C3.652 2 2.358 3.294 2.358 4.912V27.088C2.358 28.707 3.652 30 5.271 30H36.729C38.348 30 39.642 28.707 39.642 27.088V4.912C39.642 3.294 38.348 2 36.729 2H5.271Z" fill="#FFDB6E" />
  <path d="M12.5 12H29.5V14H12.5V12Z" fill="#FFBC5E" />
  <path d="M12.5 17H29.5V19H12.5V17Z" fill="#FFBC5E" />
  <path d="M12.5 22H23.5V24H12.5V22Z" fill="#FFBC5E" />
</svg>
